<svg width="256" height="256" viewBox="0 0 256 256" fill="none" xmlns="http://www.w3.org/2000/svg">
  <defs>
    <linearGradient id="cyan" x1="0%" y1="100%" x2="100%" y2="0%">
      <stop offset="0%" stop-color="#14B8A6"/>
      <stop offset="50%" stop-color="#2DD4BF"/>
      <stop offset="100%" stop-color="#5EEAD4"/>
    </linearGradient>
    <linearGradient id="navy" x1="0%" y1="0%" x2="100%" y2="100%">
      <stop offset="0%" stop-color="#1E293B"/>
      <stop offset="100%" stop-color="#0F172A"/>
    </linearGradient>
  </defs>
  
  <!-- Main cyan upper-left chevron (arrow pointing up-right) -->
  <path 
    d="M32 176
       L32 80 
       C32 64 40 52 56 44
       L116 12
       C124 8 132 8 140 12
       L140 12
       L72 52
       C64 58 60 66 60 76
       L60 136
       Z" 
    fill="url(#cyan)"
  />
  
  <!-- Navy center piece (diagonal bar) -->
  <path 
    d="M72 148
       L72 200
       C72 216 84 232 104 232
       L132 232
       L132 164
       C132 156 128 148 120 144
       Z" 
    fill="url(#navy)"
  />
  
  <!-- Cyan lower-right piece (vertical bar) -->
  <path 
    d="M148 156
       L148 232
       L176 232
       C200 232 224 208 224 180
       L224 108
       L184 148
       C172 156 160 156 148 156
       Z" 
    fill="url(#cyan)"
  />
  
  <!-- Navy upper-right piece -->
  <path 
    d="M184 148
       L224 108
       L224 56
       C224 36 208 20 188 20
       L160 20
       L160 80
       C160 100 168 116 180 128
       Z" 
    fill="url(#navy)"
  />
</svg>
